<svg width="1440" height="1024" viewBox="0 0 1440 1024" fill="none" xmlns="http://www.w3.org/2000/svg">
<rect width="1440" height="1024" fill="#E5E5E5"/>
<rect width="1440" height="1024" fill="white"/>
<path d="M57.7045 44H51.517V26.5455H57.7557C59.5114 26.5455 61.0227 26.8949 62.2898 27.5938C63.5568 28.2869 64.5313 29.2841 65.2131 30.5852C65.9006 31.8864 66.2443 33.4432 66.2443 35.2557C66.2443 37.0739 65.9006 38.6364 65.2131 39.9432C64.5313 41.25 63.5511 42.2528 62.2727 42.9517C61 43.6506 59.4773 44 57.7045 44ZM55.2074 40.8381H57.5511C58.642 40.8381 59.5597 40.6449 60.304 40.2585C61.054 39.8665 61.6165 39.2614 61.9915 38.4432C62.3722 37.6193 62.5625 36.5568 62.5625 35.2557C62.5625 33.9659 62.3722 32.9119 61.9915 32.0938C61.6165 31.2756 61.0568 30.6733 60.3125 30.2869C59.5682 29.9006 58.6506 29.7074 57.5597 29.7074H55.2074V40.8381ZM72.6428 44.2472C71.8075 44.2472 71.0632 44.1023 70.4098 43.8125C69.7564 43.517 69.2393 43.0824 68.8587 42.5085C68.4837 41.929 68.2962 41.2074 68.2962 40.3438C68.2962 39.6165 68.4297 39.0057 68.6967 38.5114C68.9638 38.017 69.3274 37.6193 69.7876 37.3182C70.2479 37.017 70.7706 36.7898 71.3558 36.6364C71.9467 36.483 72.5661 36.375 73.2138 36.3125C73.9751 36.233 74.5888 36.1591 75.0547 36.0909C75.5206 36.017 75.8587 35.9091 76.0689 35.767C76.2791 35.625 76.3842 35.4148 76.3842 35.1364V35.0852C76.3842 34.5455 76.2138 34.1278 75.8729 33.8324C75.5376 33.5369 75.0604 33.3892 74.4411 33.3892C73.7876 33.3892 73.2678 33.5341 72.8814 33.8239C72.495 34.108 72.2393 34.4659 72.1143 34.8977L68.7564 34.625C68.9268 33.8295 69.2621 33.142 69.7621 32.5625C70.2621 31.9773 70.907 31.5284 71.6967 31.2159C72.4922 30.8977 73.4126 30.7386 74.4581 30.7386C75.1854 30.7386 75.8814 30.8239 76.5462 30.9943C77.2166 31.1648 77.8104 31.429 78.3274 31.7869C78.8501 32.1449 79.2621 32.6051 79.5632 33.1676C79.8643 33.7244 80.0149 34.392 80.0149 35.1705V44H76.5717V42.1847H76.4695C76.2592 42.5938 75.978 42.9545 75.6257 43.267C75.2734 43.5739 74.8501 43.8153 74.3558 43.9915C73.8615 44.1619 73.2905 44.2472 72.6428 44.2472ZM73.6825 41.7415C74.2166 41.7415 74.6882 41.6364 75.0973 41.4261C75.5064 41.2102 75.8274 40.9205 76.0604 40.5568C76.2933 40.1932 76.4098 39.7812 76.4098 39.321V37.9318C76.2962 38.0057 76.1399 38.0739 75.9411 38.1364C75.7479 38.1932 75.5291 38.2472 75.2848 38.2983C75.0405 38.3437 74.7962 38.3864 74.5518 38.4261C74.3075 38.4602 74.0859 38.4915 73.8871 38.5199C73.4609 38.5824 73.0888 38.6818 72.7706 38.8182C72.4524 38.9545 72.2053 39.1392 72.0291 39.3722C71.853 39.5994 71.7649 39.8835 71.7649 40.2244C71.7649 40.7188 71.9439 41.0966 72.3018 41.358C72.6655 41.6136 73.1257 41.7415 73.6825 41.7415ZM93.7237 34.642L90.3999 34.8466C90.343 34.5625 90.2209 34.3068 90.0334 34.0795C89.8459 33.8466 89.5987 33.6619 89.2919 33.5256C88.9908 33.3835 88.63 33.3125 88.2095 33.3125C87.647 33.3125 87.1726 33.4318 86.7862 33.6705C86.3999 33.9034 86.2067 34.2159 86.2067 34.608C86.2067 34.9205 86.3317 35.1847 86.5817 35.4006C86.8317 35.6165 87.2607 35.7898 87.8686 35.9205L90.2379 36.3977C91.5107 36.6591 92.4595 37.0795 93.0845 37.6591C93.7095 38.2386 94.022 39 94.022 39.9432C94.022 40.8011 93.7692 41.554 93.2635 42.2017C92.7635 42.8494 92.076 43.3551 91.201 43.7188C90.3317 44.0767 89.3288 44.2557 88.1925 44.2557C86.4595 44.2557 85.0788 43.8949 84.0504 43.1733C83.0277 42.446 82.4283 41.4574 82.2521 40.2074L85.8232 40.0199C85.9311 40.5483 86.1925 40.9517 86.6072 41.2301C87.022 41.5028 87.5533 41.6392 88.201 41.6392C88.8374 41.6392 89.3487 41.517 89.7351 41.2727C90.1271 41.0227 90.326 40.7017 90.3317 40.3097C90.326 39.9801 90.1868 39.7102 89.9141 39.5C89.6413 39.2841 89.2209 39.1193 88.6527 39.0057L86.3857 38.554C85.1072 38.2983 84.1555 37.8551 83.5305 37.2244C82.9112 36.5937 82.6016 35.7898 82.6016 34.8125C82.6016 33.9716 82.8288 33.2472 83.2834 32.6392C83.7436 32.0312 84.3885 31.5625 85.218 31.233C86.0533 30.9034 87.0305 30.7386 88.1499 30.7386C89.8033 30.7386 91.1044 31.0881 92.0533 31.7869C93.0078 32.4858 93.5646 33.4375 93.7237 34.642ZM99.9389 36.4318V44H96.3082V26.5455H99.8366V33.2188H99.9901C100.286 32.446 100.763 31.8409 101.422 31.4034C102.081 30.9602 102.908 30.7386 103.902 30.7386C104.811 30.7386 105.604 30.9375 106.28 31.3352C106.962 31.7273 107.49 32.2926 107.865 33.0312C108.246 33.7642 108.433 34.642 108.428 35.6648V44H104.797V36.3125C104.803 35.5057 104.598 34.8778 104.183 34.429C103.774 33.9801 103.2 33.7557 102.462 33.7557C101.967 33.7557 101.53 33.8608 101.149 34.071C100.774 34.2812 100.479 34.5881 100.263 34.9915C100.053 35.3892 99.9446 35.8693 99.9389 36.4318ZM111.353 44V26.5455H114.984V33.108H115.094C115.254 32.7557 115.484 32.3977 115.785 32.0341C116.092 31.6648 116.489 31.358 116.978 31.1136C117.472 30.8636 118.086 30.7386 118.819 30.7386C119.773 30.7386 120.654 30.9886 121.461 31.4886C122.268 31.983 122.913 32.7301 123.396 33.7301C123.879 34.7244 124.12 35.9716 124.12 37.4716C124.12 38.9318 123.884 40.1648 123.413 41.1705C122.947 42.1705 122.31 42.929 121.504 43.446C120.702 43.9574 119.805 44.2131 118.81 44.2131C118.106 44.2131 117.506 44.0966 117.012 43.8636C116.523 43.6307 116.123 43.3381 115.81 42.9858C115.498 42.6278 115.259 42.267 115.094 41.9034H114.933V44H111.353ZM114.907 37.4545C114.907 38.233 115.015 38.9119 115.231 39.4915C115.447 40.071 115.759 40.5227 116.168 40.8466C116.577 41.1648 117.075 41.3239 117.66 41.3239C118.251 41.3239 118.751 41.1619 119.16 40.8381C119.569 40.5085 119.879 40.054 120.089 39.4744C120.305 38.8892 120.413 38.2159 120.413 37.4545C120.413 36.6989 120.308 36.0341 120.097 35.4602C119.887 34.8864 119.577 34.4375 119.168 34.1136C118.759 33.7898 118.256 33.6278 117.66 33.6278C117.069 33.6278 116.569 33.7841 116.16 34.0966C115.756 34.4091 115.447 34.8523 115.231 35.4261C115.015 36 114.907 36.6761 114.907 37.4545ZM132.457 44.2557C131.134 44.2557 129.989 43.9744 129.023 43.4119C128.063 42.8437 127.321 42.054 126.798 41.0426C126.276 40.0256 126.014 38.8466 126.014 37.5057C126.014 36.1534 126.276 34.9716 126.798 33.9602C127.321 32.9432 128.063 32.1534 129.023 31.5909C129.989 31.0227 131.134 30.7386 132.457 30.7386C133.781 30.7386 134.923 31.0227 135.884 31.5909C136.849 32.1534 137.594 32.9432 138.116 33.9602C138.639 34.9716 138.901 36.1534 138.901 37.5057C138.901 38.8466 138.639 40.0256 138.116 41.0426C137.594 42.054 136.849 42.8437 135.884 43.4119C134.923 43.9744 133.781 44.2557 132.457 44.2557ZM132.474 41.4432C133.077 41.4432 133.58 41.2727 133.983 40.9318C134.386 40.5852 134.69 40.1136 134.895 39.517C135.105 38.9205 135.21 38.2415 135.21 37.4801C135.21 36.7188 135.105 36.0398 134.895 35.4432C134.69 34.8466 134.386 34.375 133.983 34.0284C133.58 33.6818 133.077 33.5085 132.474 33.5085C131.866 33.5085 131.355 33.6818 130.94 34.0284C130.531 34.375 130.222 34.8466 130.011 35.4432C129.807 36.0398 129.705 36.7188 129.705 37.4801C129.705 38.2415 129.807 38.9205 130.011 39.517C130.222 40.1136 130.531 40.5852 130.94 40.9318C131.355 41.2727 131.866 41.4432 132.474 41.4432ZM144.994 44.2472C144.159 44.2472 143.415 44.1023 142.761 43.8125C142.108 43.517 141.591 43.0824 141.21 42.5085C140.835 41.929 140.648 41.2074 140.648 40.3438C140.648 39.6165 140.781 39.0057 141.048 38.5114C141.315 38.017 141.679 37.6193 142.139 37.3182C142.599 37.017 143.122 36.7898 143.707 36.6364C144.298 36.483 144.918 36.375 145.565 36.3125C146.327 36.233 146.94 36.1591 147.406 36.0909C147.872 36.017 148.21 35.9091 148.42 35.767C148.631 35.625 148.736 35.4148 148.736 35.1364V35.0852C148.736 34.5455 148.565 34.1278 148.224 33.8324C147.889 33.5369 147.412 33.3892 146.793 33.3892C146.139 33.3892 145.619 33.5341 145.233 33.8239C144.847 34.108 144.591 34.4659 144.466 34.8977L141.108 34.625C141.278 33.8295 141.614 33.142 142.114 32.5625C142.614 31.9773 143.259 31.5284 144.048 31.2159C144.844 30.8977 145.764 30.7386 146.81 30.7386C147.537 30.7386 148.233 30.8239 148.898 30.9943C149.568 31.1648 150.162 31.429 150.679 31.7869C151.202 32.1449 151.614 32.6051 151.915 33.1676C152.216 33.7244 152.366 34.392 152.366 35.1705V44H148.923V42.1847H148.821C148.611 42.5938 148.33 42.9545 147.977 43.267C147.625 43.5739 147.202 43.8153 146.707 43.9915C146.213 44.1619 145.642 44.2472 144.994 44.2472ZM146.034 41.7415C146.568 41.7415 147.04 41.6364 147.449 41.4261C147.858 41.2102 148.179 40.9205 148.412 40.5568C148.645 40.1932 148.761 39.7812 148.761 39.321V37.9318C148.648 38.0057 148.491 38.0739 148.293 38.1364C148.099 38.1932 147.881 38.2472 147.636 38.2983C147.392 38.3437 147.148 38.3864 146.903 38.4261C146.659 38.4602 146.438 38.4915 146.239 38.5199C145.813 38.5824 145.44 38.6818 145.122 38.8182C144.804 38.9545 144.557 39.1392 144.381 39.3722C144.205 39.5994 144.116 39.8835 144.116 40.2244C144.116 40.7188 144.295 41.0966 144.653 41.358C145.017 41.6136 145.477 41.7415 146.034 41.7415ZM155.183 44V30.9091H158.703V33.1932H158.839C159.078 32.3807 159.479 31.767 160.041 31.3523C160.604 30.9318 161.251 30.7216 161.984 30.7216C162.166 30.7216 162.362 30.733 162.572 30.7557C162.783 30.7784 162.967 30.8097 163.126 30.8494V34.071C162.956 34.0199 162.72 33.9744 162.419 33.9347C162.118 33.8949 161.842 33.875 161.592 33.875C161.058 33.875 160.581 33.9915 160.161 34.2244C159.746 34.4517 159.416 34.7699 159.172 35.179C158.933 35.5881 158.814 36.0597 158.814 36.5938V44H155.183ZM169.218 44.2131C168.224 44.2131 167.323 43.9574 166.516 43.446C165.715 42.929 165.079 42.1705 164.607 41.1705C164.141 40.1648 163.908 38.9318 163.908 37.4716C163.908 35.9716 164.15 34.7244 164.633 33.7301C165.116 32.7301 165.758 31.983 166.559 31.4886C167.366 30.9886 168.249 30.7386 169.21 30.7386C169.942 30.7386 170.553 30.8636 171.042 31.1136C171.536 31.358 171.934 31.6648 172.235 32.0341C172.542 32.3977 172.775 32.7557 172.934 33.108H173.045V26.5455H176.667V44H173.087V41.9034H172.934C172.763 42.267 172.522 42.6278 172.21 42.9858C171.903 43.3381 171.502 43.6307 171.008 43.8636C170.519 44.0966 169.923 44.2131 169.218 44.2131ZM170.369 41.3239C170.954 41.3239 171.448 41.1648 171.852 40.8466C172.261 40.5227 172.573 40.071 172.789 39.4915C173.011 38.9119 173.121 38.233 173.121 37.4545C173.121 36.6761 173.013 36 172.798 35.4261C172.582 34.8523 172.269 34.4091 171.86 34.0966C171.451 33.7841 170.954 33.6278 170.369 33.6278C169.772 33.6278 169.269 33.7898 168.86 34.1136C168.451 34.4375 168.141 34.8864 167.931 35.4602C167.721 36.0341 167.616 36.6989 167.616 37.4545C167.616 38.2159 167.721 38.8892 167.931 39.4744C168.147 40.054 168.457 40.5085 168.86 40.8381C169.269 41.1619 169.772 41.3239 170.369 41.3239ZM181.774 44.2216C181.212 44.2216 180.729 44.0227 180.325 43.625C179.928 43.2216 179.729 42.7386 179.729 42.1761C179.729 41.6193 179.928 41.142 180.325 40.7443C180.729 40.3466 181.212 40.1477 181.774 40.1477C182.32 40.1477 182.797 40.3466 183.206 40.7443C183.615 41.142 183.82 41.6193 183.82 42.1761C183.82 42.5511 183.723 42.8949 183.53 43.2074C183.342 43.5142 183.095 43.7614 182.788 43.9489C182.482 44.1307 182.143 44.2216 181.774 44.2216ZM181.774 35.0511C181.212 35.0511 180.729 34.8523 180.325 34.4545C179.928 34.0568 179.729 33.5739 179.729 33.0057C179.729 32.4489 179.928 31.9744 180.325 31.5824C180.729 31.1847 181.212 30.9858 181.774 30.9858C182.32 30.9858 182.797 31.1847 183.206 31.5824C183.615 31.9744 183.82 32.4489 183.82 33.0057C183.82 33.3864 183.723 33.733 183.53 34.0455C183.342 34.3523 183.095 34.5966 182.788 34.7784C182.482 34.9602 182.143 35.0511 181.774 35.0511ZM201.892 31.5653C201.824 30.8778 201.531 30.3437 201.014 29.9631C200.497 29.5824 199.795 29.392 198.909 29.392C198.307 29.392 197.798 29.4773 197.384 29.6477C196.969 29.8125 196.651 30.0426 196.429 30.3381C196.213 30.6335 196.105 30.9688 196.105 31.3438C196.094 31.6562 196.159 31.929 196.301 32.1619C196.449 32.3949 196.651 32.5966 196.906 32.767C197.162 32.9318 197.457 33.0767 197.793 33.2017C198.128 33.321 198.486 33.4233 198.866 33.5085L200.435 33.8835C201.196 34.054 201.895 34.2812 202.531 34.5653C203.168 34.8494 203.719 35.1989 204.185 35.6136C204.651 36.0284 205.011 36.517 205.267 37.0795C205.528 37.642 205.662 38.2869 205.668 39.0142C205.662 40.0824 205.389 41.0085 204.849 41.7926C204.315 42.571 203.543 43.1761 202.531 43.608C201.526 44.0341 200.313 44.2472 198.892 44.2472C197.483 44.2472 196.256 44.0312 195.21 43.5994C194.17 43.1676 193.358 42.5284 192.773 41.6818C192.193 40.8295 191.889 39.7756 191.861 38.5199H195.432C195.472 39.1051 195.639 39.5937 195.935 39.9858C196.236 40.3722 196.636 40.6648 197.136 40.8636C197.642 41.0568 198.213 41.1534 198.849 41.1534C199.474 41.1534 200.017 41.0625 200.477 40.8807C200.943 40.6989 201.304 40.446 201.56 40.1222C201.815 39.7983 201.943 39.4261 201.943 39.0057C201.943 38.6136 201.827 38.2841 201.594 38.017C201.366 37.75 201.031 37.5227 200.588 37.3352C200.151 37.1477 199.614 36.9773 198.977 36.8239L197.077 36.3466C195.605 35.9886 194.443 35.429 193.591 34.6676C192.739 33.9062 192.315 32.8807 192.321 31.5909C192.315 30.5341 192.597 29.6108 193.165 28.821C193.739 28.0312 194.526 27.4148 195.526 26.9716C196.526 26.5284 197.662 26.3068 198.935 26.3068C200.23 26.3068 201.361 26.5284 202.327 26.9716C203.298 27.4148 204.054 28.0312 204.594 28.821C205.134 29.6108 205.412 30.5256 205.429 31.5653H201.892ZM211.815 44.2472C210.979 44.2472 210.235 44.1023 209.582 43.8125C208.928 43.517 208.411 43.0824 208.031 42.5085C207.656 41.929 207.468 41.2074 207.468 40.3438C207.468 39.6165 207.602 39.0057 207.869 38.5114C208.136 38.017 208.499 37.6193 208.96 37.3182C209.42 37.017 209.942 36.7898 210.528 36.6364C211.119 36.483 211.738 36.375 212.386 36.3125C213.147 36.233 213.761 36.1591 214.227 36.0909C214.692 36.017 215.031 35.9091 215.241 35.767C215.451 35.625 215.556 35.4148 215.556 35.1364V35.0852C215.556 34.5455 215.386 34.1278 215.045 33.8324C214.71 33.5369 214.232 33.3892 213.613 33.3892C212.96 33.3892 212.44 33.5341 212.053 33.8239C211.667 34.108 211.411 34.4659 211.286 34.8977L207.928 34.625C208.099 33.8295 208.434 33.142 208.934 32.5625C209.434 31.9773 210.079 31.5284 210.869 31.2159C211.664 30.8977 212.585 30.7386 213.63 30.7386C214.357 30.7386 215.053 30.8239 215.718 30.9943C216.388 31.1648 216.982 31.429 217.499 31.7869C218.022 32.1449 218.434 32.6051 218.735 33.1676C219.036 33.7244 219.187 34.392 219.187 35.1705V44H215.744V42.1847H215.641C215.431 42.5938 215.15 42.9545 214.798 43.267C214.445 43.5739 214.022 43.8153 213.528 43.9915C213.033 44.1619 212.462 44.2472 211.815 44.2472ZM212.854 41.7415C213.388 41.7415 213.86 41.6364 214.269 41.4261C214.678 41.2102 214.999 40.9205 215.232 40.5568C215.465 40.1932 215.582 39.7812 215.582 39.321V37.9318C215.468 38.0057 215.312 38.0739 215.113 38.1364C214.92 38.1932 214.701 38.2472 214.457 38.2983C214.212 38.3437 213.968 38.3864 213.724 38.4261C213.479 38.4602 213.258 38.4915 213.059 38.5199C212.633 38.5824 212.261 38.6818 211.942 38.8182C211.624 38.9545 211.377 39.1392 211.201 39.3722C211.025 39.5994 210.937 39.8835 210.937 40.2244C210.937 40.7188 211.116 41.0966 211.474 41.358C211.837 41.6136 212.298 41.7415 212.854 41.7415ZM222.004 44V30.9091H225.634V44H222.004ZM223.827 29.2216C223.288 29.2216 222.825 29.0426 222.438 28.6847C222.058 28.321 221.867 27.8864 221.867 27.3807C221.867 26.8807 222.058 26.4517 222.438 26.0938C222.825 25.7301 223.288 25.5483 223.827 25.5483C224.367 25.5483 224.827 25.7301 225.208 26.0938C225.594 26.4517 225.788 26.8807 225.788 27.3807C225.788 27.8864 225.594 28.321 225.208 28.6847C224.827 29.0426 224.367 29.2216 223.827 29.2216ZM232.173 36.4318V44H228.543V30.9091H232.003V33.2188H232.156C232.446 32.4574 232.932 31.8551 233.614 31.4119C234.295 30.9631 235.122 30.7386 236.094 30.7386C237.003 30.7386 237.795 30.9375 238.472 31.3352C239.148 31.733 239.673 32.3011 240.048 33.0398C240.423 33.7727 240.611 34.6477 240.611 35.6648V44H236.98V36.3125C236.986 35.5114 236.781 34.8864 236.366 34.4375C235.952 33.983 235.381 33.7557 234.653 33.7557C234.165 33.7557 233.733 33.8608 233.358 34.071C232.989 34.2812 232.699 34.5881 232.489 34.9915C232.284 35.3892 232.179 35.8693 232.173 36.4318ZM250.435 30.9091V33.6364H242.552V30.9091H250.435ZM244.342 27.7727H247.972V39.9773C247.972 40.3125 248.023 40.5739 248.126 40.7614C248.228 40.9432 248.37 41.071 248.552 41.1449C248.739 41.2187 248.955 41.2557 249.2 41.2557C249.37 41.2557 249.54 41.2415 249.711 41.2131C249.881 41.179 250.012 41.1534 250.103 41.1364L250.674 43.8381C250.492 43.8949 250.237 43.9602 249.907 44.0341C249.577 44.1136 249.177 44.1619 248.705 44.179C247.83 44.2131 247.063 44.0966 246.404 43.8295C245.751 43.5625 245.242 43.1477 244.879 42.5852C244.515 42.0227 244.336 41.3125 244.342 40.4545V27.7727ZM258.423 44V26.5455H262.114V40.9574H269.597V44H258.423ZM280.367 38.4261V30.9091H283.998V44H280.512V41.6222H280.376C280.08 42.3892 279.589 43.0057 278.901 43.4716C278.219 43.9375 277.387 44.1705 276.404 44.1705C275.529 44.1705 274.759 43.9716 274.094 43.5739C273.43 43.1761 272.91 42.6108 272.535 41.8778C272.165 41.1449 271.978 40.267 271.972 39.2443V30.9091H275.603V38.5966C275.609 39.3693 275.816 39.9801 276.225 40.429C276.634 40.8778 277.183 41.1023 277.87 41.1023C278.308 41.1023 278.717 41.0028 279.097 40.804C279.478 40.5994 279.785 40.2983 280.018 39.9006C280.256 39.5028 280.373 39.0114 280.367 38.4261ZM292.817 44.2557C291.476 44.2557 290.322 43.9716 289.357 43.4034C288.396 42.8295 287.658 42.0341 287.141 41.017C286.629 40 286.374 38.8295 286.374 37.5057C286.374 36.1648 286.632 34.9886 287.149 33.9773C287.672 32.9602 288.413 32.1676 289.374 31.5994C290.334 31.0256 291.476 30.7386 292.8 30.7386C293.942 30.7386 294.942 30.946 295.8 31.3608C296.658 31.7756 297.337 32.358 297.837 33.108C298.337 33.858 298.612 34.7386 298.663 35.75H295.237C295.141 35.0966 294.885 34.571 294.47 34.1733C294.061 33.7699 293.524 33.5682 292.859 33.5682C292.297 33.5682 291.805 33.7216 291.385 34.0284C290.97 34.3295 290.646 34.7699 290.413 35.3494C290.18 35.929 290.064 36.6307 290.064 37.4545C290.064 38.2898 290.178 39 290.405 39.5852C290.638 40.1705 290.964 40.6165 291.385 40.9233C291.805 41.2301 292.297 41.3835 292.859 41.3835C293.274 41.3835 293.646 41.2983 293.976 41.1278C294.311 40.9574 294.587 40.7102 294.803 40.3864C295.024 40.0568 295.169 39.6619 295.237 39.2017H298.663C298.607 40.2017 298.334 41.0824 297.845 41.8438C297.362 42.5994 296.695 43.1903 295.842 43.6165C294.99 44.0426 293.982 44.2557 292.817 44.2557ZM300.988 44V30.9091H304.619V44H300.988ZM302.812 29.2216C302.272 29.2216 301.809 29.0426 301.423 28.6847C301.042 28.321 300.852 27.8864 300.852 27.3807C300.852 26.8807 301.042 26.4517 301.423 26.0938C301.809 25.7301 302.272 25.5483 302.812 25.5483C303.352 25.5483 303.812 25.7301 304.192 26.0938C304.579 26.4517 304.772 26.8807 304.772 27.3807C304.772 27.8864 304.579 28.321 304.192 28.6847C303.812 29.0426 303.352 29.2216 302.812 29.2216ZM311.26 44.2472C310.425 44.2472 309.68 44.1023 309.027 43.8125C308.374 43.517 307.857 43.0824 307.476 42.5085C307.101 41.929 306.913 41.2074 306.913 40.3438C306.913 39.6165 307.047 39.0057 307.314 38.5114C307.581 38.017 307.945 37.6193 308.405 37.3182C308.865 37.017 309.388 36.7898 309.973 36.6364C310.564 36.483 311.183 36.375 311.831 36.3125C312.592 36.233 313.206 36.1591 313.672 36.0909C314.138 36.017 314.476 35.9091 314.686 35.767C314.896 35.625 315.001 35.4148 315.001 35.1364V35.0852C315.001 34.5455 314.831 34.1278 314.49 33.8324C314.155 33.5369 313.678 33.3892 313.058 33.3892C312.405 33.3892 311.885 33.5341 311.499 33.8239C311.112 34.108 310.857 34.4659 310.732 34.8977L307.374 34.625C307.544 33.8295 307.879 33.142 308.379 32.5625C308.879 31.9773 309.524 31.5284 310.314 31.2159C311.109 30.8977 312.03 30.7386 313.075 30.7386C313.803 30.7386 314.499 30.8239 315.163 30.9943C315.834 31.1648 316.428 31.429 316.945 31.7869C317.467 32.1449 317.879 32.6051 318.18 33.1676C318.482 33.7244 318.632 34.392 318.632 35.1705V44H315.189V42.1847H315.087C314.876 42.5938 314.595 42.9545 314.243 43.267C313.891 43.5739 313.467 43.8153 312.973 43.9915C312.479 44.1619 311.908 44.2472 311.26 44.2472ZM312.3 41.7415C312.834 41.7415 313.305 41.6364 313.714 41.4261C314.124 41.2102 314.445 40.9205 314.678 40.5568C314.911 40.1932 315.027 39.7812 315.027 39.321V37.9318C314.913 38.0057 314.757 38.0739 314.558 38.1364C314.365 38.1932 314.146 38.2472 313.902 38.2983C313.658 38.3437 313.413 38.3864 313.169 38.4261C312.925 38.4602 312.703 38.4915 312.504 38.5199C312.078 38.5824 311.706 38.6818 311.388 38.8182C311.07 38.9545 310.822 39.1392 310.646 39.3722C310.47 39.5994 310.382 39.8835 310.382 40.2244C310.382 40.7188 310.561 41.0966 310.919 41.358C311.283 41.6136 311.743 41.7415 312.3 41.7415ZM325.08 36.4318V44H321.449V30.9091H324.909V33.2188H325.062C325.352 32.4574 325.838 31.8551 326.52 31.4119C327.202 30.9631 328.028 30.7386 329 30.7386C329.909 30.7386 330.702 30.9375 331.378 31.3352C332.054 31.733 332.58 32.3011 332.955 33.0398C333.33 33.7727 333.517 34.6477 333.517 35.6648V44H329.886V36.3125C329.892 35.5114 329.688 34.8864 329.273 34.4375C328.858 33.983 328.287 33.7557 327.56 33.7557C327.071 33.7557 326.639 33.8608 326.264 34.071C325.895 34.2812 325.605 34.5881 325.395 34.9915C325.19 35.3892 325.085 35.8693 325.08 36.4318ZM345.01 44H341.055L347.081 26.5455H351.837L357.854 44H353.899L349.527 30.5341H349.391L345.01 44ZM344.763 37.1392H354.104V40.0199H344.763V37.1392ZM359.886 44V30.9091H363.406V33.1932H363.543C363.781 32.3807 364.182 31.767 364.744 31.3523C365.307 30.9318 365.955 30.7216 366.688 30.7216C366.869 30.7216 367.065 30.733 367.276 30.7557C367.486 30.7784 367.67 30.8097 367.83 30.8494V34.071C367.659 34.0199 367.423 33.9744 367.122 33.9347C366.821 33.8949 366.545 33.875 366.295 33.875C365.761 33.875 365.284 33.9915 364.864 34.2244C364.449 34.4517 364.119 34.7699 363.875 35.179C363.636 35.5881 363.517 36.0597 363.517 36.5938V44H359.886ZM369.707 44V30.9091H373.227V33.1932H373.363C373.602 32.3807 374.002 31.767 374.565 31.3523C375.127 30.9318 375.775 30.7216 376.508 30.7216C376.69 30.7216 376.886 30.733 377.096 30.7557C377.306 30.7784 377.491 30.8097 377.65 30.8494V34.071C377.479 34.0199 377.244 33.9744 376.942 33.9347C376.641 33.8949 376.366 33.875 376.116 33.875C375.582 33.875 375.104 33.9915 374.684 34.2244C374.269 34.4517 373.94 34.7699 373.695 35.179C373.457 35.5881 373.337 36.0597 373.337 36.5938V44H369.707ZM379.527 44V30.9091H383.158V44H379.527ZM381.351 29.2216C380.811 29.2216 380.348 29.0426 379.962 28.6847C379.581 28.321 379.391 27.8864 379.391 27.3807C379.391 26.8807 379.581 26.4517 379.962 26.0938C380.348 25.7301 380.811 25.5483 381.351 25.5483C381.891 25.5483 382.351 25.7301 382.732 26.0938C383.118 26.4517 383.311 26.8807 383.311 27.3807C383.311 27.8864 383.118 28.321 382.732 28.6847C382.351 29.0426 381.891 29.2216 381.351 29.2216ZM398.271 30.9091L393.694 44H389.603L385.026 30.9091H388.862L391.58 40.2756H391.717L394.427 30.9091H398.271ZM403.51 44.2472C402.675 44.2472 401.93 44.1023 401.277 43.8125C400.624 43.517 400.107 43.0824 399.726 42.5085C399.351 41.929 399.163 41.2074 399.163 40.3438C399.163 39.6165 399.297 39.0057 399.564 38.5114C399.831 38.017 400.195 37.6193 400.655 37.3182C401.115 37.017 401.638 36.7898 402.223 36.6364C402.814 36.483 403.433 36.375 404.081 36.3125C404.842 36.233 405.456 36.1591 405.922 36.0909C406.388 36.017 406.726 35.9091 406.936 35.767C407.146 35.625 407.251 35.4148 407.251 35.1364V35.0852C407.251 34.5455 407.081 34.1278 406.74 33.8324C406.405 33.5369 405.928 33.3892 405.308 33.3892C404.655 33.3892 404.135 33.5341 403.749 33.8239C403.362 34.108 403.107 34.4659 402.982 34.8977L399.624 34.625C399.794 33.8295 400.129 33.142 400.629 32.5625C401.129 31.9773 401.774 31.5284 402.564 31.2159C403.359 30.8977 404.28 30.7386 405.325 30.7386C406.053 30.7386 406.749 30.8239 407.413 30.9943C408.084 31.1648 408.678 31.429 409.195 31.7869C409.717 32.1449 410.129 32.6051 410.43 33.1676C410.732 33.7244 410.882 34.392 410.882 35.1705V44H407.439V42.1847H407.337C407.126 42.5938 406.845 42.9545 406.493 43.267C406.141 43.5739 405.717 43.8153 405.223 43.9915C404.729 44.1619 404.158 44.2472 403.51 44.2472ZM404.55 41.7415C405.084 41.7415 405.555 41.6364 405.964 41.4261C406.374 41.2102 406.695 40.9205 406.928 40.5568C407.161 40.1932 407.277 39.7812 407.277 39.321V37.9318C407.163 38.0057 407.007 38.0739 406.808 38.1364C406.615 38.1932 406.396 38.2472 406.152 38.2983C405.908 38.3437 405.663 38.3864 405.419 38.4261C405.175 38.4602 404.953 38.4915 404.754 38.5199C404.328 38.5824 403.956 38.6818 403.638 38.8182C403.32 38.9545 403.072 39.1392 402.896 39.3722C402.72 39.5994 402.632 39.8835 402.632 40.2244C402.632 40.7188 402.811 41.0966 403.169 41.358C403.533 41.6136 403.993 41.7415 404.55 41.7415ZM417.33 26.5455V44H413.699V26.5455H417.33ZM431.13 34.642L427.806 34.8466C427.749 34.5625 427.627 34.3068 427.44 34.0795C427.252 33.8466 427.005 33.6619 426.698 33.5256C426.397 33.3835 426.036 33.3125 425.616 33.3125C425.053 33.3125 424.579 33.4318 424.192 33.6705C423.806 33.9034 423.613 34.2159 423.613 34.608C423.613 34.9205 423.738 35.1847 423.988 35.4006C424.238 35.6165 424.667 35.7898 425.275 35.9205L427.644 36.3977C428.917 36.6591 429.866 37.0795 430.491 37.6591C431.116 38.2386 431.428 39 431.428 39.9432C431.428 40.8011 431.175 41.554 430.67 42.2017C430.17 42.8494 429.482 43.3551 428.607 43.7188C427.738 44.0767 426.735 44.2557 425.599 44.2557C423.866 44.2557 422.485 43.8949 421.457 43.1733C420.434 42.446 419.835 41.4574 419.658 40.2074L423.229 40.0199C423.337 40.5483 423.599 40.9517 424.013 41.2301C424.428 41.5028 424.96 41.6392 425.607 41.6392C426.244 41.6392 426.755 41.517 427.141 41.2727C427.533 41.0227 427.732 40.7017 427.738 40.3097C427.732 39.9801 427.593 39.7102 427.32 39.5C427.048 39.2841 426.627 39.1193 426.059 39.0057L423.792 38.554C422.513 38.2983 421.562 37.8551 420.937 37.2244C420.317 36.5937 420.008 35.7898 420.008 34.8125C420.008 33.9716 420.235 33.2472 420.69 32.6392C421.15 32.0312 421.795 31.5625 422.624 31.233C423.46 30.9034 424.437 30.7386 425.556 30.7386C427.21 30.7386 428.511 31.0881 429.46 31.7869C430.414 32.4858 430.971 33.4375 431.13 34.642Z" fill="black"/>
<g filter="url(#filter0_d_616_198)">
<rect x="56" y="124" width="296" height="162" rx="30" fill="white"/>
</g>
<g filter="url(#filter1_d_616_198)">
<rect x="388" y="124" width="296" height="162" rx="30" fill="white"/>
</g>
<g filter="url(#filter2_d_616_198)">
<rect x="720" y="124" width="296" height="162" rx="30" fill="white"/>
</g>
<g filter="url(#filter3_d_616_198)">
<rect x="56" y="321" width="960" height="324" rx="30" fill="white"/>
</g>
<g filter="url(#filter4_d_616_198)">
<rect x="56" y="680" width="960" height="324" rx="30" fill="white"/>
</g>
<line x1="1067.5" y1="124" x2="1067.5" y2="1004" stroke="black" stroke-opacity="0.1" stroke-dasharray="2 2"/>
<rect x="1114" y="124" width="296" height="521" rx="30" fill="white"/>
<rect x="1113.5" y="123.5" width="297" height="522" rx="30.5" stroke="black" stroke-opacity="0.25"/>
<rect x="1114" y="680" width="303" height="324" rx="30" fill="white"/>
<rect x="1113.5" y="679.5" width="304" height="325" rx="30.5" stroke="black" stroke-opacity="0.25"/>
<defs>
<filter id="filter0_d_616_198" x="52" y="124" width="304" height="170" filterUnits="userSpaceOnUse" color-interpolation-filters="sRGB">
<feFlood flood-opacity="0" result="BackgroundImageFix"/>
<feColorMatrix in="SourceAlpha" type="matrix" values="0 0 0 0 0 0 0 0 0 0 0 0 0 0 0 0 0 0 127 0" result="hardAlpha"/>
<feOffset dy="4"/>
<feGaussianBlur stdDeviation="2"/>
<feComposite in2="hardAlpha" operator="out"/>
<feColorMatrix type="matrix" values="0 0 0 0 0 0 0 0 0 0 0 0 0 0 0 0 0 0 0.25 0"/>
<feBlend mode="normal" in2="BackgroundImageFix" result="effect1_dropShadow_616_198"/>
<feBlend mode="normal" in="SourceGraphic" in2="effect1_dropShadow_616_198" result="shape"/>
</filter>
<filter id="filter1_d_616_198" x="384" y="124" width="304" height="170" filterUnits="userSpaceOnUse" color-interpolation-filters="sRGB">
<feFlood flood-opacity="0" result="BackgroundImageFix"/>
<feColorMatrix in="SourceAlpha" type="matrix" values="0 0 0 0 0 0 0 0 0 0 0 0 0 0 0 0 0 0 127 0" result="hardAlpha"/>
<feOffset dy="4"/>
<feGaussianBlur stdDeviation="2"/>
<feComposite in2="hardAlpha" operator="out"/>
<feColorMatrix type="matrix" values="0 0 0 0 0 0 0 0 0 0 0 0 0 0 0 0 0 0 0.25 0"/>
<feBlend mode="normal" in2="BackgroundImageFix" result="effect1_dropShadow_616_198"/>
<feBlend mode="normal" in="SourceGraphic" in2="effect1_dropShadow_616_198" result="shape"/>
</filter>
<filter id="filter2_d_616_198" x="716" y="124" width="304" height="170" filterUnits="userSpaceOnUse" color-interpolation-filters="sRGB">
<feFlood flood-opacity="0" result="BackgroundImageFix"/>
<feColorMatrix in="SourceAlpha" type="matrix" values="0 0 0 0 0 0 0 0 0 0 0 0 0 0 0 0 0 0 127 0" result="hardAlpha"/>
<feOffset dy="4"/>
<feGaussianBlur stdDeviation="2"/>
<feComposite in2="hardAlpha" operator="out"/>
<feColorMatrix type="matrix" values="0 0 0 0 0 0 0 0 0 0 0 0 0 0 0 0 0 0 0.25 0"/>
<feBlend mode="normal" in2="BackgroundImageFix" result="effect1_dropShadow_616_198"/>
<feBlend mode="normal" in="SourceGraphic" in2="effect1_dropShadow_616_198" result="shape"/>
</filter>
<filter id="filter3_d_616_198" x="52" y="321" width="968" height="332" filterUnits="userSpaceOnUse" color-interpolation-filters="sRGB">
<feFlood flood-opacity="0" result="BackgroundImageFix"/>
<feColorMatrix in="SourceAlpha" type="matrix" values="0 0 0 0 0 0 0 0 0 0 0 0 0 0 0 0 0 0 127 0" result="hardAlpha"/>
<feOffset dy="4"/>
<feGaussianBlur stdDeviation="2"/>
<feComposite in2="hardAlpha" operator="out"/>
<feColorMatrix type="matrix" values="0 0 0 0 0 0 0 0 0 0 0 0 0 0 0 0 0 0 0.25 0"/>
<feBlend mode="normal" in2="BackgroundImageFix" result="effect1_dropShadow_616_198"/>
<feBlend mode="normal" in="SourceGraphic" in2="effect1_dropShadow_616_198" result="shape"/>
</filter>
<filter id="filter4_d_616_198" x="52" y="680" width="968" height="332" filterUnits="userSpaceOnUse" color-interpolation-filters="sRGB">
<feFlood flood-opacity="0" result="BackgroundImageFix"/>
<feColorMatrix in="SourceAlpha" type="matrix" values="0 0 0 0 0 0 0 0 0 0 0 0 0 0 0 0 0 0 127 0" result="hardAlpha"/>
<feOffset dy="4"/>
<feGaussianBlur stdDeviation="2"/>
<feComposite in2="hardAlpha" operator="out"/>
<feColorMatrix type="matrix" values="0 0 0 0 0 0 0 0 0 0 0 0 0 0 0 0 0 0 0.25 0"/>
<feBlend mode="normal" in2="BackgroundImageFix" result="effect1_dropShadow_616_198"/>
<feBlend mode="normal" in="SourceGraphic" in2="effect1_dropShadow_616_198" result="shape"/>
</filter>
</defs>
</svg>
